<?xml version='1.0' encoding='utf-8'?>
<svg xmlns="http://www.w3.org/2000/svg" version="1.0" width="984.000000pt" height="232.000000pt" viewBox="0 0 984.000000 232.000000" preserveAspectRatio="xMidYMid meet">
<metadata>
Created by potrace 1.16, written by Peter Selinger 2001-2019
</metadata>
<g transform="translate(0.000000,232.000000) scale(0.100000,-0.100000)" fill="url(#blueToPurple)" stroke="none">
<path d="M5076 2251 c-3 -4 20 -48 50 -96 128 -201 174 -329 174 -482 l0 -93 -1505 0 -1504 0 -6 33 c-3 17 -6 59 -8 91 l-2 59 -67 49 c-37 27 -72 47 -78 43 -6 -4 -10 -53 -10 -118 0 -62 -3 -121 -6 -133 l-5 -21 -956 -6 c-526 -3 -957 -7 -958 -9 -2 -2 -5 -23 -7 -48 l-3 -45 348 -3 347 -2 0 -70 c0 -47 -4 -70 -12 -70 -6 0 -50 7 -97 16 -259 49 -485 -47 -485 -206 0 -85 74 -194 163 -240 55 -28 116 -26 276 10 209 46 275 39 275 -32 0 -52 -106 -109 -241 -131 -61 -9 -73 -8 -150 17 -46 15 -106 36 -134 46 -57 22 -135 26 -153 8 -15 -15 -16 -82 -2 -109 20 -37 132 -77 261 -94 44 -5 48 -9 97 -79 89 -127 118 -144 232 -137 52 4 58 15 32 64 -36 68 -68 97 -106 97 -22 0 -46 10 -70 29 l-36 29 46 11 c106 27 204 95 239 165 14 27 25 59 25 69 0 79 -68 165 -152 193 -74 24 -204 14 -332 -25 -55 -17 -112 -31 -128 -31 -62 0 -92 84 -45 128 54 50 113 66 268 70 124 4 158 1 226 -17 43 -11 87 -23 96 -27 16 -6 17 8 17 155 l0 161 132 0 131 0 -7 -111 c-4 -72 -12 -119 -21 -132 -8 -12 -15 -34 -15 -50 0 -24 3 -28 18 -22 141 56 312 91 381 79 76 -14 131 -61 131 -111 0 -37 -4 -39 -52 -19 -92 39 -255 27 -365 -25 -82 -39 -176 -130 -193 -185 -16 -54 1 -114 47 -165 53 -58 108 -87 191 -99 113 -16 217 3 359 66 6 3 14 -3 17 -13 4 -10 33 -29 71 -44 l65 -27 0 212 c-1 293 -11 388 -47 440 -44 64 -88 80 -223 84 -63 2 -145 -1 -182 -6 l-68 -9 0 69 0 68 379 0 379 0 4 -347 c3 -342 3 -349 26 -385 33 -53 85 -95 134 -109 55 -15 152 0 216 33 50 26 145 139 140 166 -3 17 -121 102 -142 102 -7 0 -17 -28 -24 -70 -17 -98 -47 -159 -88 -176 -37 -16 -76 -5 -91 25 -4 9 -9 184 -11 389 l-3 372 264 0 264 0 6 -280 c7 -320 7 -320 96 -403 78 -73 124 -90 261 -95 125 -5 205 7 263 38 20 11 40 20 43 20 4 0 5 -96 2 -212 -6 -244 -11 -261 -93 -337 -87 -80 -200 -116 -345 -109 -101 5 -145 23 -212 88 -50 48 -61 87 -38 129 17 33 155 84 283 106 21 3 37 10 35 15 -10 31 -95 131 -114 136 -26 7 -121 -19 -177 -48 -57 -29 -124 -95 -138 -135 -37 -114 77 -265 243 -323 78 -26 282 -38 373 -21 134 25 282 128 328 228 21 46 22 64 28 533 3 267 5 488 2 492 -6 11 -165 59 -172 52 -3 -3 -8 -87 -11 -187 -5 -169 -7 -186 -32 -237 -57 -121 -157 -195 -263 -194 -64 1 -107 17 -141 56 -48 53 -49 57 -52 381 l-4 307 447 0 447 0 -4 -112 c-3 -80 -9 -122 -21 -143 -15 -27 -23 -65 -14 -65 2 0 51 17 108 37 98 35 111 37 229 37 110 1 128 -1 152 -19 39 -29 63 -94 40 -109 -4 -2 -39 4 -77 15 -84 23 -151 24 -230 4 -170 -44 -305 -166 -305 -276 0 -42 45 -117 88 -148 71 -50 111 -61 232 -60 114 0 137 4 248 50 26 11 36 11 50 1 26 -19 115 -62 129 -62 7 0 16 12 20 27 8 34 -14 468 -28 538 -27 140 -128 186 -359 165 -63 -6 -123 -13 -132 -16 -16 -5 -18 3 -18 65 l0 71 665 0 665 0 0 -165 c0 -91 -3 -165 -6 -165 -3 0 -46 38 -96 84 -107 102 -161 131 -238 130 -101 -2 -137 -18 -220 -102 -93 -93 -120 -146 -120 -229 0 -84 42 -166 134 -259 90 -91 156 -126 252 -132 87 -5 125 12 217 98 36 33 67 60 71 60 3 0 6 -26 6 -57 l0 -58 70 -29 c39 -16 74 -26 77 -22 4 3 9 195 11 426 l5 420 998 0 999 0 0 -59 c0 -91 -1 -92 -68 -73 -78 22 -268 21 -342 -1 -169 -51 -229 -163 -159 -301 44 -88 145 -158 228 -157 25 0 105 14 177 30 196 46 252 44 274 -9 17 -41 -4 -71 -73 -103 -129 -62 -254 -63 -405 -3 -96 38 -174 48 -195 27 -7 -7 -12 -32 -12 -57 0 -79 65 -118 243 -145 l77 -12 55 -80 c30 -44 67 -89 81 -100 33 -24 98 -37 150 -30 51 7 52 32 1 104 -32 46 -43 55 -77 60 -44 6 -75 20 -94 42 -10 13 -4 17 38 27 51 12 147 64 190 103 13 12 32 40 42 62 48 103 -6 215 -125 260 -68 26 -203 16 -330 -24 -119 -38 -155 -39 -184 -8 -32 34 -28 65 17 107 58 55 135 75 291 73 103 0 140 -5 210 -26 62 -19 87 -22 92 -14 4 7 8 78 8 160 l0 147 85 0 85 0 0 -383 0 -383 76 -43 c42 -23 77 -41 79 -39 1 2 6 91 12 198 8 153 14 203 28 233 24 51 96 124 170 173 53 35 65 39 135 42 71 4 78 2 108 -23 62 -52 82 -129 62 -242 -13 -82 -45 -141 -129 -240 l-61 -71 48 -28 c85 -50 94 -54 114 -43 40 22 136 157 158 225 54 161 -10 352 -153 455 -52 38 -105 51 -195 51 -86 -1 -140 -22 -210 -81 -27 -23 -51 -41 -55 -41 -4 0 -7 54 -7 120 l0 120 434 0 433 0 6 -332 c3 -199 10 -348 17 -370 12 -41 67 -100 114 -125 45 -24 162 -20 222 6 59 27 94 58 145 133 29 42 35 58 26 66 -28 21 -148 84 -153 79 -3 -3 -12 -38 -21 -79 -21 -101 -36 -134 -75 -158 -43 -26 -54 -25 -83 5 l-25 24 0 376 0 375 385 0 385 0 0 48 0 49 -107 6 c-58 4 -231 7 -384 7 l-277 0 -7 94 -7 95 -70 46 c-38 26 -73 44 -76 40 -4 -3 -8 -67 -10 -141 l-4 -134 -327 -2 c-371 -2 -497 1 -527 12 -17 7 -23 22 -32 88 -24 168 -97 339 -187 440 -34 37 -49 46 -90 53 -65 10 -135 11 -135 1 0 -4 19 -30 43 -57 125 -145 207 -335 207 -482 l0 -53 -1139 0 -1138 0 -8 83 c-19 232 -97 455 -193 556 -39 41 -39 41 -115 41 -42 0 -78 -4 -81 -9z m82 -1047 c145 -72 136 -190 -28 -354 -90 -90 -145 -120 -220 -120 -65 0 -108 28 -139 93 -48 98 -17 211 84 306 105 99 205 124 303 75z m-3527 -215 c47 -12 103 -50 107 -73 5 -25 -32 -61 -108 -106 -99 -59 -180 -83 -280 -83 -143 -1 -186 33 -146 112 18 34 93 104 137 127 76 40 188 49 290 23z m2627 -4 c86 -27 118 -52 107 -84 -9 -28 -87 -83 -181 -128 -78 -38 -80 -38 -205 -38 -111 0 -130 2 -148 19 -28 25 -26 48 5 96 43 65 133 125 219 146 76 19 116 16 203 -11z" />
<path d="M6426 2042 c-3 -5 1 -31 10 -58 18 -54 55 -95 128 -136 30 -18 56 -44 74 -74 15 -25 39 -60 54 -78 24 -28 27 -29 34 -12 9 23 -17 108 -66 214 -38 82 -40 83 -102 111 -73 34 -124 46 -132 33z" />
<path d="M9375 2029 c4 -13 20 -49 34 -79 21 -45 35 -60 76 -82 66 -36 113 -81 136 -133 24 -53 45 -73 62 -56 17 17 -55 227 -96 276 -33 41 -111 81 -178 91 -40 7 -41 6 -34 -17z" />
<path d="M6020 1344 c-30 -8 -79 -26 -109 -39 -65 -30 -71 -31 -71 -5 0 18 -7 20 -85 20 l-85 0 2 -322 3 -323 83 -43 82 -43 0 153 c0 181 14 306 40 366 24 53 121 152 180 182 28 14 64 24 93 24 42 1 52 -3 74 -28 29 -35 25 -67 -15 -109 -29 -31 -92 -67 -117 -67 -26 0 -17 -13 53 -83 l69 -68 54 44 c139 113 144 201 15 298 -79 60 -156 73 -266 43z" />
<path d="M6542 1019 l3 -342 65 -34 65 -35 6 24 c4 12 7 182 8 376 l1 352 -75 0 -75 0 2 -341z" />
<path d="M9500 1021 l0 -339 57 -31 c32 -18 63 -29 70 -26 11 3 13 78 11 367 l-3 363 -67 3 -68 3 0 -340z" />
</g>
<defs><linearGradient id="blueToPurple" x1="0%" y1="0%" x2="100%" y2="0%"><stop offset="0%" style="stop-color:#00ccff;stop-opacity:1" /><stop offset="100%" style="stop-color:#d400d4;stop-opacity:1" /></linearGradient></defs></svg>